<svg width="22" height="28" viewBox="0 0 22 28" fill="none" xmlns="http://www.w3.org/2000/svg">
<path d="M0.750671 17.5278C0.750671 16.3735 0.750671 15.2195 0.750671 14.0652C0.859079 12.8529 0.904993 11.6364 0.882749 10.4213C0.849744 8.62151 1.5794 7.64495 3.29975 7.37686C3.45888 7.35211 3.61308 7.28212 3.77328 7.27697C4.79517 7.2441 4.80897 7.28069 4.97182 6.094C5.15718 4.74236 5.58116 3.45288 6.30891 2.33706C7.07705 1.15937 8.18704 0.292238 9.71262 0.293858C11.1647 0.29534 12.6447 0.084135 14.0636 0.383332C16.3205 0.859096 18.1861 1.97316 19.1028 4.25293C19.1999 4.49451 19.3192 4.71397 19.527 4.87228C20.5103 5.62169 21.0678 6.61731 21.2493 7.83248C21.2493 8.3865 21.2493 8.94052 21.2493 9.49453C21.1305 10.129 20.9104 10.7062 20.5187 11.242C20.1727 11.7153 20.267 12.329 20.3883 12.8506C20.8714 14.9293 20.5005 16.9651 20.1808 19.0093C19.9928 20.2108 19.7688 21.4065 19.6227 22.6146C19.528 23.3977 19.3444 24.1536 18.8869 24.8171C18.4839 25.501 17.8683 25.7731 17.0945 25.7591C16.6123 25.7501 16.1297 25.7588 15.6472 25.7585C14.2511 25.7575 13.8967 25.5205 13.3613 24.2358C13.1206 23.6607 13.0139 23.0601 13.0167 22.4359C13.0181 22.1485 12.9617 21.8401 12.5942 21.858C12.2225 21.8759 12.3161 22.218 12.3069 22.4458C12.2814 23.0819 12.3469 23.7237 12.1653 24.3489C11.9084 25.7653 10.7795 26.8038 9.31604 26.9792C8.10987 27.1238 6.97322 26.8509 5.90537 26.3311C5.33762 26.0547 5.07197 25.4978 4.9988 24.8669C4.98433 24.0175 4.82992 23.1786 4.80734 22.3289C4.79442 21.8428 4.56002 21.5367 4.02737 21.6046C2.33461 21.8204 1.09301 20.4931 0.888497 18.7428C0.841226 18.338 0.886807 17.9219 0.750671 17.5278Z" fill="#010000"/>
<path fill-rule="evenodd" clip-rule="evenodd" d="M13.5161 24.1698C13.8893 25.185 14.5387 25.741 15.6947 25.5746C16.1666 25.5068 16.6567 25.5497 17.1378 25.5642C17.8336 25.5849 18.3868 25.3555 18.7344 24.7241C19.6654 24.8861 20.6617 24.9007 21.2494 25.8381C21.2494 25.9766 21.2494 26.1151 21.2494 26.2536C21.0738 26.7037 20.6913 26.889 20.2701 27.0394C18.8748 27.5375 17.419 27.6339 15.9583 27.7087C15.6905 27.7224 15.4119 27.6308 15.1552 27.7771C12.9854 27.7771 10.8153 27.7771 8.64545 27.7771C7.74078 27.6292 6.81838 27.6995 5.91364 27.5587C5.00382 27.4171 4.09184 27.2742 3.24749 26.8796C2.8871 26.7113 2.53955 26.5089 2.5453 26.0331C2.55098 25.5562 2.89501 25.3379 3.27211 25.2153C3.88795 25.0153 4.46955 24.5841 5.17662 24.8578C5.29104 25.7408 5.8383 26.1589 6.65471 26.4463C8.31501 27.0305 9.82579 26.9944 11.2784 25.8678C11.8435 25.4299 11.8454 24.865 11.9782 24.3002C12.4695 24.0026 12.9946 24.1073 13.5161 24.1698Z" fill="#373B3C"/>
<path fill-rule="evenodd" clip-rule="evenodd" d="M7.51312 3.39079C8.33211 2.36406 9.26835 1.59687 10.7125 1.79651C11.2567 1.87171 11.8157 1.86353 12.3675 1.85562C13.9254 1.83322 15.2463 2.36411 16.3167 3.50022C16.4355 3.62621 16.6708 3.73137 16.5825 3.93554C16.502 4.1218 16.2637 4.09373 16.0836 4.0919C14.8641 4.07953 13.6421 3.98553 12.4316 4.22453C11.913 4.32692 11.3793 4.37994 10.8781 4.53758C10.0396 4.8014 9.46503 5.42521 9.38252 6.27315C9.22617 7.87846 9.21176 9.47952 10.094 10.963C10.4771 11.6074 11.0273 11.9556 11.6403 12.262C13.11 12.9967 14.6382 12.8113 16.1634 12.4898C16.8146 12.3525 17.4759 12.2216 18.0962 11.9901C18.746 11.7477 18.805 12.0445 18.7536 12.5479C18.7046 13.5082 18.6326 14.4574 18.3859 15.401C17.8719 17.3666 17.0333 18.0169 15.0483 18.3272C13.3408 18.5939 11.7377 18.176 10.1204 17.8833C9.19119 17.7151 8.6977 16.812 8.34259 15.9932C7.67982 14.4647 7.35987 12.8496 7.14541 11.1865C6.96397 9.78006 6.9975 8.3819 6.90378 6.98264C6.81917 5.71968 7.30116 4.58527 7.51312 3.39079Z" fill="#C01701"/>
<path fill-rule="evenodd" clip-rule="evenodd" d="M7.51312 3.39079C7.56999 4.04348 7.44129 4.67074 7.2244 5.279C7.15238 5.48108 7.13068 5.67856 7.12073 5.88584C7.02051 7.98262 7.12059 10.0782 7.44109 12.144C7.65709 13.5361 7.93803 14.969 8.65132 16.2013C9.14244 17.0498 9.73683 17.8787 11.0139 17.845C11.9787 17.8194 12.9268 18.3645 13.933 18.211C14.721 18.0907 15.5282 18.1666 16.3029 17.8711C17.1471 17.549 17.6569 16.968 17.9405 16.1437C18.2929 15.1201 18.5012 14.0654 18.6163 12.9912C18.6332 12.833 18.604 12.6636 18.7536 12.5479C19.1326 15.5557 18.827 18.5038 17.9964 21.4092C17.8352 21.9732 17.959 22.5562 17.9461 23.1302C17.9242 24.0976 17.7896 24.2485 16.8534 24.339C16.5791 24.3654 16.3062 24.4185 16.0315 24.4268C14.9693 24.4584 14.5656 24.0877 14.6079 23.0113C14.6374 22.2594 14.6412 21.4672 15.6452 21.2025C16.0639 21.0921 16.4126 20.7422 16.8552 20.2825C16.007 20.3937 15.3291 20.4383 14.6479 20.4379C13.8383 20.4372 13.0429 20.3529 12.2514 20.1959C11.9329 20.1329 11.6062 20.1101 11.29 20.1908C10.9583 20.2756 10.7417 20.4479 10.6957 20.8478C10.5984 21.6957 10.5442 22.5405 10.5708 23.3938C10.608 24.5875 9.89798 25.3298 8.68323 25.4056C8.04259 25.4457 7.45902 25.251 6.88417 24.9976C6.65673 24.8972 6.61344 24.7304 6.58464 24.5077C6.00491 20.0201 5.97542 15.5119 6.02602 10.9973C6.04807 9.03757 6.28869 7.11582 6.77933 5.22767C6.94388 4.59459 7.26404 4.00196 7.51312 3.39079Z" fill="#770A39"/>
<path fill-rule="evenodd" clip-rule="evenodd" d="M4.6123 10.5899C4.62096 12.9405 4.62327 15.2912 4.64348 17.6416C4.64761 18.1225 4.7314 18.6023 4.75609 19.0838C4.80289 19.9944 4.30758 20.3114 3.45321 19.9113C2.79133 19.6013 2.48098 19.149 2.35843 18.3396C1.98093 15.846 2.30792 13.3832 2.43492 10.9089C2.4381 10.8479 2.49687 10.7896 2.52967 10.73C2.87505 10.7509 3.19014 10.6239 3.51503 10.5368C3.88286 10.4382 4.25881 10.3264 4.6123 10.5899Z" fill="#760B39"/>
<path fill-rule="evenodd" clip-rule="evenodd" d="M19.8735 7.96416C20.1094 8.853 19.697 9.80407 18.7149 10.2807C17.0298 11.0986 15.2571 11.5551 13.3677 11.1217C12.4335 10.9074 11.6931 10.3339 11.0897 9.62959C10.3343 8.74804 10.5722 6.61611 11.4397 5.91911C11.7458 6.07467 11.7891 6.38386 11.8734 6.66702C12.3769 8.36013 13.0892 8.89764 14.8654 8.88797C16.0369 8.88161 17.1967 8.72195 18.3578 8.58418C18.9237 8.51703 19.3665 8.16589 19.8735 7.96416Z" fill="#4A646E"/>
<path fill-rule="evenodd" clip-rule="evenodd" d="M19.8735 7.96415C19.5333 8.59121 18.8914 8.72917 18.2945 8.79997C17.0419 8.9487 15.784 9.08111 14.5162 9.06677C13.0343 9.05007 12.1676 8.40292 11.7632 6.97243C11.6633 6.61907 11.5481 6.2701 11.4398 5.91911C12.8285 5.63325 14.2051 5.2201 15.6416 5.32694C16.696 5.40539 17.7236 5.66091 18.6306 6.23292C19.2665 6.63382 19.7496 7.1789 19.8735 7.96415Z" fill="#98C7DC"/>
<path fill-rule="evenodd" clip-rule="evenodd" d="M4.61228 10.5899C4.07748 10.5803 3.56343 10.6708 3.06114 10.8636C2.88125 10.9327 2.61391 11.1333 2.52979 10.73C2.56075 10.5038 2.5828 10.2759 2.62454 10.0517C2.80991 9.05677 3.55869 8.62401 4.51938 8.93091C4.77331 9.012 4.74093 9.18412 4.72625 9.36286C4.69256 9.77223 4.65077 10.181 4.61228 10.5899Z" fill="#BD1804"/>
<path fill-rule="evenodd" clip-rule="evenodd" d="M17.0518 7.555C16.3687 7.47952 15.4849 7.37003 14.5984 7.28888C14.1336 7.24634 14.0376 6.94451 14.0368 6.57275C14.0361 6.14066 14.3121 5.88556 14.6975 5.82356C15.7628 5.65218 16.7863 5.92959 17.8037 6.19802C18.0242 6.25624 18.226 6.38494 18.3694 6.57681C18.5079 6.76217 18.6672 6.95668 18.5588 7.20271C18.4472 7.45525 18.2394 7.5786 17.9477 7.55817C17.7183 7.54215 17.487 7.555 17.0518 7.555Z" fill="#FBFDFC"/>
</svg>
