<svg width="41" height="38" xmlns="http://www.w3.org/2000/svg">
 <defs>
  <filter height="1.1594" x="-0.12364" width="1.2473" y="-0.0797" id="imagebot_25">
   <feGaussianBlur stdDeviation="0.35517" id="imagebot_43"/>
  </filter>
  <filter height="1.2275" x="-0.21046" width="1.4209" y="-0.11376" id="imagebot_9">
   <feGaussianBlur stdDeviation="0.43847" id="imagebot_42"/>
  </filter>
  <filter height="1.4516" x="-0.23598" width="1.472" y="-0.22578" id="imagebot_7">
   <feGaussianBlur stdDeviation="0.4036" id="imagebot_41"/>
  </filter>
  <filter height="1.4411" x="-0.13309" width="1.2662" y="-0.22055" id="imagebot_5">
   <feGaussianBlur stdDeviation="0.40204" id="imagebot_40"/>
  </filter>
  <filter height="1.4173" x="-0.15136" width="1.3027" y="-0.20863" id="imagebot_3">
   <feGaussianBlur stdDeviation="0.40204" id="imagebot_39"/>
  </filter>
  <linearGradient id="imagebot_50" y2="1">
   <stop offset="0" stop-color="#e92d28"/>
   <stop offset="1" stop-color="#6d0018"/>
  </linearGradient>
  <linearGradient id="imagebot_52" y2="1">
   <stop offset="0" stop-color="#e92d28"/>
   <stop offset="1" stop-color="#6d0018"/>
  </linearGradient>
  <linearGradient id="imagebot_53" y2="1">
   <stop offset="0" stop-color="#e92d28"/>
   <stop offset="1" stop-color="#6d0018"/>
  </linearGradient>
  <linearGradient id="imagebot_55" y2="1">
   <stop offset="0" stop-color="#e92d28"/>
   <stop offset="1" stop-color="#6d0018"/>
  </linearGradient>
 </defs>
 <g label="Layer 1" id="imagebot_1">
  <path label="Layer 1" fill="url(#imagebot_55)" stroke-width="1px" transform="translate(0 0.0753121) matrix(1 0 0 1 -3.6199 -1010.28)" d="M3.6634,1021L3.6634,1044L24.9114,1048.7L25.3164,1025.4L3.6634,1021z" id="imagebot_37"/>
  <path label="Layer 1" fill="url(#imagebot_53)" stroke-width="1px" d="M 1.1825561863076928e-8 10.79998779296875 L 20.28400001182556 5.29998779296875 L 40.52500001182556 9.899987792968773 L 21.33500001182556 15.499987792968795 L 1.1825561863076928e-8 10.79998779296875 z" id="imagebot_35"/>
  <path label="Layer 1" fill="url(#imagebot_52)" stroke-width="1px" transform="translate(0 0.0753121) matrix(1 0 0 1 -3.6199 -1010.28)" d="M6.826,1021.1L24.077,1016.4L41.04,1020.2L24.824,1024.7L6.826,1021.1z" id="imagebot_33"/>
  <path label="Layer 1" fill="none" stroke-width="1px" transform="translate(0 0.0753121) matrix(1 0 0 1 -3.6199 -1010.28)" d="M43.455,1021.2L43.225,1042.5L25.802,1047.4L25.687,1026.3L43.455,1021.2z" id="imagebot_32"/>
  <path label="Layer 1" fill="url(#imagebot_50)" stroke-width="1px" transform="translate(0 0.0753121) matrix(1 0 0 1 -3.6199 -1010.28)" d="M44.145,1020.1L44.145,1043.1L24.781,1048.7L24.824,1025.6L44.145,1020.1z" id="imagebot_30"/>
  <path label="Layer 1" fill="#007fff" stroke-width="1px" transform="translate(0 0.0753121) matrix(1 0 0 1 -3.6199 -1010.28)" d="M10.657,1022.6L10.657,1045.6L16.405,1046.9L16.448,1023.7L10.657,1022.6z" id="imagebot_28"/>
  <path label="Layer 1" fill="#007fff" stroke-width="1px" transform="translate(0 0.0753121) matrix(1 0 0 1 -3.6199 -1010.28)" d="M32.858,1023.3L32.858,1046.3L37.754,1045L37.754,1022L32.858,1023.3z" id="imagebot_26"/>
  <path label="Layer 1" fill="#ffffff" stroke-width="1px" filter="url(#imagebot_25)" transform="translate(0 0.0753121) matrix(1 0 0 1 -3.6199 -1010.28)" fill-opacity="0.55967" d="M4.331,1032.6C4.331,1032.2 4.2426,1021.9 4.2426,1021.9L11.137,1023.5C4.8858,1023 4.5988,1027.8 4.331,1032.6z" id="imagebot_24"/>
  <path label="Layer 1" fill="#007fff" stroke-width="1px" d="M 6.977100011825561 12.499987792968795 L 27.03410001182556 6.79998779296875 L 32.80010001182556 8.099987792968705 L 12.926100011825561 13.599987792968705 L 6.977100011825561 12.499987792968795 z" id="imagebot_22"/>
  <path label="Layer 1" fill="#007fff" stroke-width="1px" transform="translate(0 0.0753121) matrix(1 0 0 1 -3.6199 -1010.28)" d="M11.707,1018.8L17.561,1017.1L37.802,1021.9L32.929,1023.4L11.707,1018.8z" id="imagebot_19"/>
  <path label="Layer 1" fill="none" stroke-width="1px" transform="translate(0 0.0753121) matrix(1 0 0 1 -3.6199 -1010.28)" d="M14.298,1018.7L17.964,1018L34.927,1021.8L32.468,1022.4L14.298,1018.7z" id="imagebot_16"/>
  <path label="Layer 1" fill="#0037ff" stroke-width="1px" transform="translate(0 0.0753121) matrix(1 0 0 1 -3.6199 -1010.28)" d="M21.96,1015.5C19.475,1012.6 16.832,1010.4 13.737,1010.2C10.334,1015.5 11.634,1017.6 12.702,1021.3C16.188,1021 19.487,1020.4 22.362,1019L21.96,1015.5z" id="imagebot_14"/>
  <path label="Layer 1" fill="#0055ff" stroke-width="1px" transform="translate(0 0.0753121) matrix(1 0 0 1 -3.6199 -1010.28)" d="M25.859,1015.8C28.344,1012.9 30.987,1010.7 34.082,1010.5C37.485,1015.8 36.185,1017.9 35.117,1021.6C31.631,1021.3 28.332,1020.7 25.457,1019.3L25.859,1015.8z" id="imagebot_12"/>
  <path label="Layer 1" fill="#0043ff" transform="translate(0 0.0753121) matrix(0.92004 0 0 0.92004 -1.8541 -4.88989)" fill-rule="evenodd" d="M28.062,13.531C28.062,15.482 26.216,17.062 23.938,17.062C21.659,17.062 19.812,15.482 19.812,13.531C19.812,11.581 21.659,10 23.938,10C26.216,10 28.062,11.581 28.062,13.531z" id="imagebot_10"/>
  <path label="Layer 1" fill="#ffffff" stroke-width="1px" filter="url(#imagebot_9)" transform="translate(0 0.0753121) matrix(1 0 0 1 -3.6199 -1010.28)" fill-opacity="0.7572" d="M38.625,1022.4L43.5,1021L43.625,1030.2C43.643,1023.9 41.941,1021.4 38.625,1022.4z" id="imagebot_8"/>
  <path label="Layer 1" fill="#ffffff" stroke-width="1px" filter="url(#imagebot_7)" transform="translate(0 0.0753121) matrix(1 0 0 1 -3.6199 -1010.28)" fill-opacity="0.72016" d="M25,1015.5C22.886,1015.5 21.448,1016.6 21,1019.4C21,1019.4 19.875,1013.5 25,1015.5z" id="imagebot_6"/>
  <path label="Layer 1" fill="#ffffff" stroke-width="1px" filter="url(#imagebot_5)" transform="translate(0 0.0753121) matrix(1 0 0 1 -3.6199 -1010.28)" fill-opacity="0.73663" d="M12.25,1015.2C12.448,1013.8 12.514,1012.3 14,1010.9C17.414,1011.6 17.879,1012.7 19.5,1013.7C16.462,1012.6 13.643,1012.1 12.25,1015.2z" id="imagebot_4"/>
  <path label="Layer 1" fill="#ffffff" stroke-width="1px" filter="url(#imagebot_3)" transform="translate(0 0.0753121) matrix(1 0 0 1 -3.6199 -1010.28)" fill-opacity="0.73663" d="M29,1013.5C30.542,1012.5 31.907,1011 33.75,1011C34.513,1013.4 34.936,1014.5 35.375,1015.6C34.278,1013.6 32.423,1012.5 29,1013.5z" id="imagebot_2"/>
  <title label="Layer 1"/>
 </g>
 <metadata>image/svg+xmlOpenclipartPresent ns2012-02-07T20:05:38https://openclipart.org/detail/167937/present-ns-by-rdurisrdurispresentgiftboxbirthday</metadata>
</svg>